<mxfile host="app.diagrams.net" agent="Mozilla/5.0 (Macintosh; Intel Mac OS X 10_15_7) AppleWebKit/537.36 (KHTML, like Gecko) Chrome/131.0.0.0 Safari/537.36" version="24.8.8">
  <diagram name="Page-1" id="13e1069c-82ec-6db2-03f1-153e76fe0fe0">
    <mxGraphModel dx="984" dy="1410" grid="1" gridSize="10" guides="1" tooltips="1" connect="1" arrows="1" fold="1" page="1" pageScale="1" pageWidth="1100" pageHeight="850" background="none" math="0" shadow="0">
      <root>
        <mxCell id="0" />
        <mxCell id="1" parent="0" />
        <mxCell id="7baba1c4bc27f4b0-8" value="userController:&lt;div&gt;UserController&lt;/div&gt;" style="shape=umlLifeline;perimeter=lifelinePerimeter;whiteSpace=wrap;html=1;container=1;collapsible=0;recursiveResize=0;outlineConnect=0;rounded=1;shadow=0;comic=0;labelBackgroundColor=none;strokeWidth=1;fontFamily=Verdana;fontSize=12;align=center;" parent="1" vertex="1">
          <mxGeometry x="205" y="80" width="100" height="580" as="geometry" />
        </mxCell>
        <mxCell id="7baba1c4bc27f4b0-9" value="" style="html=1;points=[];perimeter=orthogonalPerimeter;rounded=0;shadow=0;comic=0;labelBackgroundColor=none;strokeWidth=1;fontFamily=Verdana;fontSize=12;align=center;" parent="7baba1c4bc27f4b0-8" vertex="1">
          <mxGeometry x="40" y="100" width="20" height="470" as="geometry" />
        </mxCell>
        <mxCell id="or7VH1FDS2Liu_N3dtBP-1" value="HTTP POST&lt;div&gt;user/register (&lt;/div&gt;&lt;div&gt;creditCardInfo,&lt;/div&gt;&lt;div&gt;authHeader)&lt;/div&gt;" style="html=1;verticalAlign=bottom;endArrow=block;labelBackgroundColor=none;fontFamily=Verdana;fontSize=12;edgeStyle=elbowEdgeStyle;elbow=vertical;exitX=1.121;exitY=0.053;exitDx=0;exitDy=0;exitPerimeter=0;" parent="1" source="QvisIA7G4HqKEyWp4MsY-4" edge="1">
          <mxGeometry x="0.0681" relative="1" as="geometry">
            <mxPoint x="90" y="200" as="sourcePoint" />
            <mxPoint x="245" y="200" as="targetPoint" />
            <mxPoint as="offset" />
            <Array as="points">
              <mxPoint x="150" y="200" />
            </Array>
          </mxGeometry>
        </mxCell>
        <mxCell id="or7VH1FDS2Liu_N3dtBP-4" value="&lt;font style=&quot;font-size: 24px;&quot;&gt;Use Case - Register User&lt;/font&gt;&lt;div&gt;&lt;span style=&quot;font-size: 24px;&quot;&gt;Tom Wilson&lt;/span&gt;&lt;/div&gt;" style="text;html=1;align=left;verticalAlign=middle;whiteSpace=wrap;rounded=0;" parent="1" vertex="1">
          <mxGeometry x="10" y="10" width="330" height="30" as="geometry" />
        </mxCell>
        <mxCell id="or7VH1FDS2Liu_N3dtBP-21" value="HTTP OK (registeredUser)" style="html=1;verticalAlign=bottom;endArrow=block;labelBackgroundColor=none;fontFamily=Verdana;fontSize=12;edgeStyle=elbowEdgeStyle;elbow=horizontal;exitX=0.042;exitY=0.81;exitDx=0;exitDy=0;exitPerimeter=0;dashed=1;" parent="1" edge="1">
          <mxGeometry relative="1" as="geometry">
            <mxPoint x="240" y="640" as="sourcePoint" />
            <mxPoint x="60" y="640" as="targetPoint" />
            <mxPoint as="offset" />
          </mxGeometry>
        </mxCell>
        <mxCell id="QvisIA7G4HqKEyWp4MsY-9" value="" style="shape=umlLifeline;perimeter=lifelinePerimeter;whiteSpace=wrap;html=1;container=1;dropTarget=0;collapsible=0;recursiveResize=0;outlineConnect=0;portConstraint=eastwest;newEdgeStyle={&quot;curved&quot;:0,&quot;rounded&quot;:0};participant=umlActor;" parent="1" vertex="1">
          <mxGeometry x="40" y="80" width="20" height="580" as="geometry" />
        </mxCell>
        <mxCell id="QvisIA7G4HqKEyWp4MsY-4" value="" style="html=1;points=[];perimeter=orthogonalPerimeter;rounded=0;shadow=0;comic=0;labelBackgroundColor=none;strokeWidth=1;fontFamily=Verdana;fontSize=12;align=center;" parent="1" vertex="1">
          <mxGeometry x="40" y="180" width="20" height="490" as="geometry" />
        </mxCell>
        <mxCell id="Ttm7teX-CGRO_Jp1u3ho-2" value="jwtUtil:&lt;div&gt;JWTUtil&lt;/div&gt;" style="shape=umlLifeline;perimeter=lifelinePerimeter;whiteSpace=wrap;html=1;container=1;collapsible=0;recursiveResize=0;outlineConnect=0;rounded=1;shadow=0;comic=0;labelBackgroundColor=none;strokeWidth=1;fontFamily=Verdana;fontSize=12;align=center;" parent="1" vertex="1">
          <mxGeometry x="400" y="20" width="90" height="580" as="geometry" />
        </mxCell>
        <mxCell id="Ttm7teX-CGRO_Jp1u3ho-3" value="" style="html=1;points=[];perimeter=orthogonalPerimeter;rounded=0;shadow=0;comic=0;labelBackgroundColor=none;strokeWidth=1;fontFamily=Verdana;fontSize=12;align=center;" parent="Ttm7teX-CGRO_Jp1u3ho-2" vertex="1">
          <mxGeometry x="35" y="160" width="20" height="100" as="geometry" />
        </mxCell>
        <mxCell id="BQZ55DfxKaPA7genuqM5-32" value="registeredUser" style="html=1;verticalAlign=bottom;endArrow=block;labelBackgroundColor=none;fontFamily=Verdana;fontSize=12;edgeStyle=elbowEdgeStyle;elbow=vertical;dashed=1;exitX=-0.123;exitY=0.96;exitDx=0;exitDy=0;exitPerimeter=0;" parent="Ttm7teX-CGRO_Jp1u3ho-2" source="Ttm7teX-CGRO_Jp1u3ho-7" edge="1">
          <mxGeometry relative="1" as="geometry">
            <mxPoint x="294" y="530" as="sourcePoint" />
            <mxPoint x="-135" y="590" as="targetPoint" />
            <mxPoint as="offset" />
            <Array as="points">
              <mxPoint x="70" y="590" />
            </Array>
          </mxGeometry>
        </mxCell>
        <mxCell id="Ttm7teX-CGRO_Jp1u3ho-6" value="userService:&lt;div&gt;UserService&lt;/div&gt;" style="shape=umlLifeline;perimeter=lifelinePerimeter;whiteSpace=wrap;html=1;container=1;collapsible=0;recursiveResize=0;outlineConnect=0;rounded=1;shadow=0;comic=0;labelBackgroundColor=none;strokeWidth=1;fontFamily=Verdana;fontSize=12;align=center;" parent="1" vertex="1">
          <mxGeometry x="480" y="80" width="100" height="630" as="geometry" />
        </mxCell>
        <mxCell id="Ttm7teX-CGRO_Jp1u3ho-7" value="" style="html=1;points=[];perimeter=orthogonalPerimeter;rounded=0;shadow=0;comic=0;labelBackgroundColor=none;strokeWidth=1;fontFamily=Verdana;fontSize=12;align=center;" parent="Ttm7teX-CGRO_Jp1u3ho-6" vertex="1">
          <mxGeometry x="40" y="160" width="20" height="380" as="geometry" />
        </mxCell>
        <mxCell id="Ttm7teX-CGRO_Jp1u3ho-11" value="userRepository:&lt;div&gt;UserRepository&lt;/div&gt;" style="shape=umlLifeline;perimeter=lifelinePerimeter;whiteSpace=wrap;html=1;container=1;collapsible=0;recursiveResize=0;outlineConnect=0;rounded=1;shadow=0;comic=0;labelBackgroundColor=none;strokeWidth=1;fontFamily=Verdana;fontSize=12;align=center;" parent="1" vertex="1">
          <mxGeometry x="640" y="130" width="100" height="520" as="geometry" />
        </mxCell>
        <mxCell id="BQZ55DfxKaPA7genuqM5-6" value="" style="html=1;points=[];perimeter=orthogonalPerimeter;rounded=0;shadow=0;comic=0;labelBackgroundColor=none;strokeWidth=1;fontFamily=Verdana;fontSize=12;align=center;" parent="Ttm7teX-CGRO_Jp1u3ho-11" vertex="1">
          <mxGeometry x="40" y="190" width="20" height="40" as="geometry" />
        </mxCell>
        <mxCell id="BQZ55DfxKaPA7genuqM5-9" value="findById" style="html=1;verticalAlign=bottom;endArrow=block;labelBackgroundColor=none;fontFamily=Verdana;fontSize=12;edgeStyle=elbowEdgeStyle;elbow=vertical;" parent="Ttm7teX-CGRO_Jp1u3ho-11" edge="1">
          <mxGeometry x="0.0069" y="2" relative="1" as="geometry">
            <mxPoint x="-100" y="200" as="sourcePoint" />
            <mxPoint x="40" y="200" as="targetPoint" />
            <mxPoint as="offset" />
            <Array as="points" />
          </mxGeometry>
        </mxCell>
        <mxCell id="BQZ55DfxKaPA7genuqM5-11" value="user" style="html=1;verticalAlign=bottom;endArrow=block;labelBackgroundColor=none;fontFamily=Verdana;fontSize=12;edgeStyle=elbowEdgeStyle;elbow=horizontal;dashed=1;" parent="Ttm7teX-CGRO_Jp1u3ho-11" edge="1">
          <mxGeometry relative="1" as="geometry">
            <mxPoint x="40" y="220" as="sourcePoint" />
            <mxPoint x="-100" y="220" as="targetPoint" />
            <mxPoint as="offset" />
          </mxGeometry>
        </mxCell>
        <mxCell id="BQZ55DfxKaPA7genuqM5-21" value="executeUpdate" style="html=1;verticalAlign=bottom;endArrow=block;labelBackgroundColor=none;fontFamily=Verdana;fontSize=12;edgeStyle=elbowEdgeStyle;elbow=vertical;entryX=-0.082;entryY=0.151;entryDx=0;entryDy=0;entryPerimeter=0;" parent="Ttm7teX-CGRO_Jp1u3ho-11" edge="1">
          <mxGeometry x="0.0077" y="2" relative="1" as="geometry">
            <mxPoint x="-99" y="371" as="sourcePoint" />
            <mxPoint x="199" y="370" as="targetPoint" />
            <mxPoint as="offset" />
            <Array as="points" />
          </mxGeometry>
        </mxCell>
        <mxCell id="7baba1c4bc27f4b0-11" value="getAuthToken(authHeader)" style="html=1;verticalAlign=bottom;endArrow=block;labelBackgroundColor=none;fontFamily=Verdana;fontSize=12;edgeStyle=elbowEdgeStyle;elbow=vertical;" parent="1" edge="1">
          <mxGeometry relative="1" as="geometry">
            <mxPoint x="260" y="200" as="sourcePoint" />
            <mxPoint x="435" y="200" as="targetPoint" />
            <mxPoint as="offset" />
            <Array as="points" />
          </mxGeometry>
        </mxCell>
        <mxCell id="BQZ55DfxKaPA7genuqM5-1" value="token" style="html=1;verticalAlign=bottom;endArrow=block;labelBackgroundColor=none;fontFamily=Verdana;fontSize=12;edgeStyle=elbowEdgeStyle;elbow=horizontal;exitX=0;exitY=0.4;exitDx=0;exitDy=0;exitPerimeter=0;dashed=1;" parent="1" edge="1">
          <mxGeometry relative="1" as="geometry">
            <mxPoint x="430" y="220" as="sourcePoint" />
            <mxPoint x="265" y="220" as="targetPoint" />
            <mxPoint as="offset" />
          </mxGeometry>
        </mxCell>
        <mxCell id="BQZ55DfxKaPA7genuqM5-2" value="getUsername(authHeader)" style="html=1;verticalAlign=bottom;endArrow=block;labelBackgroundColor=none;fontFamily=Verdana;fontSize=12;edgeStyle=elbowEdgeStyle;elbow=vertical;" parent="1" edge="1">
          <mxGeometry relative="1" as="geometry">
            <mxPoint x="261" y="246" as="sourcePoint" />
            <mxPoint x="436" y="246" as="targetPoint" />
            <mxPoint as="offset" />
            <Array as="points" />
          </mxGeometry>
        </mxCell>
        <mxCell id="BQZ55DfxKaPA7genuqM5-3" value="username" style="html=1;verticalAlign=bottom;endArrow=block;labelBackgroundColor=none;fontFamily=Verdana;fontSize=12;edgeStyle=elbowEdgeStyle;elbow=horizontal;exitX=-0.05;exitY=0.4;exitDx=0;exitDy=0;exitPerimeter=0;dashed=1;" parent="1" edge="1">
          <mxGeometry relative="1" as="geometry">
            <mxPoint x="435" y="266" as="sourcePoint" />
            <mxPoint x="266" y="266" as="targetPoint" />
            <mxPoint as="offset" />
          </mxGeometry>
        </mxCell>
        <mxCell id="BQZ55DfxKaPA7genuqM5-5" value="register(userID, creditCard)" style="html=1;verticalAlign=bottom;endArrow=block;labelBackgroundColor=none;fontFamily=Verdana;fontSize=12;edgeStyle=elbowEdgeStyle;elbow=vertical;" parent="1" edge="1">
          <mxGeometry x="-0.2776" relative="1" as="geometry">
            <mxPoint x="270" y="311" as="sourcePoint" />
            <mxPoint x="519" y="311" as="targetPoint" />
            <mxPoint as="offset" />
            <Array as="points">
              <mxPoint x="480" y="311" />
              <mxPoint x="580" y="300" />
            </Array>
          </mxGeometry>
        </mxCell>
        <mxCell id="BQZ55DfxKaPA7genuqM5-7" value="creditCardRepository:&lt;div&gt;CreditCardRepository&lt;/div&gt;" style="shape=umlLifeline;perimeter=lifelinePerimeter;whiteSpace=wrap;html=1;container=1;collapsible=0;recursiveResize=0;outlineConnect=0;rounded=1;shadow=0;comic=0;labelBackgroundColor=none;strokeWidth=1;fontFamily=Verdana;fontSize=12;align=center;" parent="1" vertex="1">
          <mxGeometry x="705" y="70" width="150" height="580" as="geometry" />
        </mxCell>
        <mxCell id="BQZ55DfxKaPA7genuqM5-8" value="" style="html=1;points=[];perimeter=orthogonalPerimeter;rounded=0;shadow=0;comic=0;labelBackgroundColor=none;strokeWidth=1;fontFamily=Verdana;fontSize=12;align=center;" parent="BQZ55DfxKaPA7genuqM5-7" vertex="1">
          <mxGeometry x="65" y="320" width="20" height="40" as="geometry" />
        </mxCell>
        <mxCell id="BQZ55DfxKaPA7genuqM5-10" value="save(creditCard)" style="html=1;verticalAlign=bottom;endArrow=block;labelBackgroundColor=none;fontFamily=Verdana;fontSize=12;edgeStyle=elbowEdgeStyle;elbow=vertical;" parent="BQZ55DfxKaPA7genuqM5-7" edge="1">
          <mxGeometry x="0.0069" y="2" relative="1" as="geometry">
            <mxPoint x="-165" y="330" as="sourcePoint" />
            <mxPoint x="65" y="330" as="targetPoint" />
            <mxPoint as="offset" />
            <Array as="points">
              <mxPoint x="-35" y="330" />
            </Array>
          </mxGeometry>
        </mxCell>
        <mxCell id="BQZ55DfxKaPA7genuqM5-20" value="createNativeQuery" style="html=1;verticalAlign=bottom;endArrow=block;labelBackgroundColor=none;fontFamily=Verdana;fontSize=12;edgeStyle=elbowEdgeStyle;elbow=vertical;" parent="BQZ55DfxKaPA7genuqM5-7" target="BQZ55DfxKaPA7genuqM5-17" edge="1">
          <mxGeometry x="0.0077" y="2" relative="1" as="geometry">
            <mxPoint x="-165" y="405" as="sourcePoint" />
            <mxPoint x="95" y="410" as="targetPoint" />
            <mxPoint as="offset" />
            <Array as="points">
              <mxPoint x="-35" y="405" />
            </Array>
          </mxGeometry>
        </mxCell>
        <mxCell id="BQZ55DfxKaPA7genuqM5-22" value="flush" style="html=1;verticalAlign=bottom;endArrow=block;labelBackgroundColor=none;fontFamily=Verdana;fontSize=12;edgeStyle=elbowEdgeStyle;elbow=vertical;entryX=-0.082;entryY=0.151;entryDx=0;entryDy=0;entryPerimeter=0;" parent="BQZ55DfxKaPA7genuqM5-7" edge="1">
          <mxGeometry x="0.0077" y="2" relative="1" as="geometry">
            <mxPoint x="-165" y="451" as="sourcePoint" />
            <mxPoint x="133" y="450" as="targetPoint" />
            <mxPoint as="offset" />
            <Array as="points" />
          </mxGeometry>
        </mxCell>
        <mxCell id="BQZ55DfxKaPA7genuqM5-23" value="clear" style="html=1;verticalAlign=bottom;endArrow=block;labelBackgroundColor=none;fontFamily=Verdana;fontSize=12;edgeStyle=elbowEdgeStyle;elbow=vertical;entryX=-0.082;entryY=0.151;entryDx=0;entryDy=0;entryPerimeter=0;" parent="BQZ55DfxKaPA7genuqM5-7" edge="1">
          <mxGeometry x="0.0077" y="2" relative="1" as="geometry">
            <mxPoint x="-165" y="471" as="sourcePoint" />
            <mxPoint x="133" y="470" as="targetPoint" />
            <mxPoint as="offset" />
            <Array as="points" />
          </mxGeometry>
        </mxCell>
        <mxCell id="BQZ55DfxKaPA7genuqM5-12" value="savedCreditCard" style="html=1;verticalAlign=bottom;endArrow=block;labelBackgroundColor=none;fontFamily=Verdana;fontSize=12;edgeStyle=elbowEdgeStyle;elbow=horizontal;dashed=1;" parent="1" edge="1">
          <mxGeometry relative="1" as="geometry">
            <mxPoint x="769" y="420" as="sourcePoint" />
            <mxPoint x="540" y="420" as="targetPoint" />
            <mxPoint as="offset" />
          </mxGeometry>
        </mxCell>
        <mxCell id="BQZ55DfxKaPA7genuqM5-16" value="entityManager:&lt;div&gt;EntityManager&lt;/div&gt;" style="shape=umlLifeline;perimeter=lifelinePerimeter;whiteSpace=wrap;html=1;container=1;collapsible=0;recursiveResize=0;outlineConnect=0;rounded=1;shadow=0;comic=0;labelBackgroundColor=none;strokeWidth=1;fontFamily=Verdana;fontSize=12;align=center;" parent="1" vertex="1">
          <mxGeometry x="800" y="130" width="100" height="520" as="geometry" />
        </mxCell>
        <mxCell id="BQZ55DfxKaPA7genuqM5-17" value="" style="html=1;points=[];perimeter=orthogonalPerimeter;rounded=0;shadow=0;comic=0;labelBackgroundColor=none;strokeWidth=1;fontFamily=Verdana;fontSize=12;align=center;" parent="BQZ55DfxKaPA7genuqM5-16" vertex="1">
          <mxGeometry x="40" y="320" width="20" height="100" as="geometry" />
        </mxCell>
        <mxCell id="BQZ55DfxKaPA7genuqM5-24" value="registeredUserRepository:&lt;div&gt;RegisteredUserRepository&lt;/div&gt;" style="shape=umlLifeline;perimeter=lifelinePerimeter;whiteSpace=wrap;html=1;container=1;collapsible=0;recursiveResize=0;outlineConnect=0;rounded=1;shadow=0;comic=0;labelBackgroundColor=none;strokeWidth=1;fontFamily=Verdana;fontSize=12;align=center;" parent="1" vertex="1">
          <mxGeometry x="890" y="70" width="180" height="580" as="geometry" />
        </mxCell>
        <mxCell id="BQZ55DfxKaPA7genuqM5-25" value="" style="html=1;points=[];perimeter=orthogonalPerimeter;rounded=0;shadow=0;comic=0;labelBackgroundColor=none;strokeWidth=1;fontFamily=Verdana;fontSize=12;align=center;" parent="BQZ55DfxKaPA7genuqM5-24" vertex="1">
          <mxGeometry x="80" y="490" width="20" height="40" as="geometry" />
        </mxCell>
        <mxCell id="BQZ55DfxKaPA7genuqM5-30" value="findById" style="html=1;verticalAlign=bottom;endArrow=block;labelBackgroundColor=none;fontFamily=Verdana;fontSize=12;edgeStyle=elbowEdgeStyle;elbow=vertical;entryX=-0.031;entryY=0.266;entryDx=0;entryDy=0;entryPerimeter=0;" parent="1" target="BQZ55DfxKaPA7genuqM5-25" edge="1">
          <mxGeometry x="0.0069" y="2" relative="1" as="geometry">
            <mxPoint x="540" y="570" as="sourcePoint" />
            <mxPoint x="680" y="570" as="targetPoint" />
            <mxPoint as="offset" />
            <Array as="points" />
          </mxGeometry>
        </mxCell>
        <mxCell id="BQZ55DfxKaPA7genuqM5-31" value="registeredUser" style="html=1;verticalAlign=bottom;endArrow=block;labelBackgroundColor=none;fontFamily=Verdana;fontSize=12;edgeStyle=elbowEdgeStyle;elbow=vertical;dashed=1;exitX=-0.031;exitY=0.734;exitDx=0;exitDy=0;exitPerimeter=0;" parent="1" source="BQZ55DfxKaPA7genuqM5-25" edge="1">
          <mxGeometry relative="1" as="geometry">
            <mxPoint x="680" y="590" as="sourcePoint" />
            <mxPoint x="540" y="590" as="targetPoint" />
            <mxPoint as="offset" />
          </mxGeometry>
        </mxCell>
      </root>
    </mxGraphModel>
  </diagram>
</mxfile>
